<svg xmlns="http://www.w3.org/2000/svg" viewBox="0 0 1600 900" width="1600" height="900" preserveAspectRatio="xMidYMid slice">
<defs>
  <pattern id="grid" width="48" height="48" patternUnits="userSpaceOnUse">
    <path d="M48 0 H0 V48" fill="none" stroke="#93c5fd" stroke-opacity="0.055" stroke-width="1"/>
  </pattern>
  <linearGradient id="fade" x1="0" y1="0" x2="0" y2="1">
    <stop offset="0%" stop-color="#000" stop-opacity="0"/>
    <stop offset="100%" stop-color="#000" stop-opacity="0.35"/>
  </linearGradient>
</defs>
<rect width="1600" height="900" fill="url(#grid)"/>
<g transform="translate(215,205)" fill="none" stroke="#dbeafe" stroke-opacity="0.17" stroke-width="3.4" stroke-linejoin="round">
<circle r="96"/>
<circle r="34"/>
<rect x="-10.0" y="-116" width="20" height="23.4" rx="2" transform="rotate(0.0)"/>
<rect x="-10.0" y="-116" width="20" height="23.4" rx="2" transform="rotate(25.714285714285715)"/>
<rect x="-10.0" y="-116" width="20" height="23.4" rx="2" transform="rotate(51.42857142857143)"/>
<rect x="-10.0" y="-116" width="20" height="23.4" rx="2" transform="rotate(77.14285714285714)"/>
<rect x="-10.0" y="-116" width="20" height="23.4" rx="2" transform="rotate(102.85714285714286)"/>
<rect x="-10.0" y="-116" width="20" height="23.4" rx="2" transform="rotate(128.57142857142858)"/>
<rect x="-10.0" y="-116" width="20" height="23.4" rx="2" transform="rotate(154.28571428571428)"/>
<rect x="-10.0" y="-116" width="20" height="23.4" rx="2" transform="rotate(180.0)"/>
<rect x="-10.0" y="-116" width="20" height="23.4" rx="2" transform="rotate(205.71428571428572)"/>
<rect x="-10.0" y="-116" width="20" height="23.4" rx="2" transform="rotate(231.42857142857144)"/>
<rect x="-10.0" y="-116" width="20" height="23.4" rx="2" transform="rotate(257.14285714285717)"/>
<rect x="-10.0" y="-116" width="20" height="23.4" rx="2" transform="rotate(282.8571428571429)"/>
<rect x="-10.0" y="-116" width="20" height="23.4" rx="2" transform="rotate(308.57142857142856)"/>
<rect x="-10.0" y="-116" width="20" height="23.4" rx="2" transform="rotate(334.2857142857143)"/>
<line x1="34.0" y1="0.0" x2="92.0" y2="0.0"/>
<line x1="17.0" y1="29.4" x2="46.0" y2="79.7"/>
<line x1="-17.0" y1="29.4" x2="-46.0" y2="79.7"/>
<line x1="-34.0" y1="0.0" x2="-92.0" y2="0.0"/>
<line x1="-17.0" y1="-29.4" x2="-46.0" y2="-79.7"/>
<line x1="17.0" y1="-29.4" x2="46.0" y2="-79.7"/>
</g>
<g transform="translate(352,300)" fill="none" stroke="#dbeafe" stroke-opacity="0.13" stroke-width="3.0" stroke-linejoin="round">
<circle r="60"/>
<circle r="21"/>
<rect x="-7.5" y="-75" width="15" height="18.0" rx="2" transform="rotate(0.0)"/>
<rect x="-7.5" y="-75" width="15" height="18.0" rx="2" transform="rotate(32.72727272727273)"/>
<rect x="-7.5" y="-75" width="15" height="18.0" rx="2" transform="rotate(65.45454545454545)"/>
<rect x="-7.5" y="-75" width="15" height="18.0" rx="2" transform="rotate(98.18181818181819)"/>
<rect x="-7.5" y="-75" width="15" height="18.0" rx="2" transform="rotate(130.9090909090909)"/>
<rect x="-7.5" y="-75" width="15" height="18.0" rx="2" transform="rotate(163.63636363636363)"/>
<rect x="-7.5" y="-75" width="15" height="18.0" rx="2" transform="rotate(196.36363636363637)"/>
<rect x="-7.5" y="-75" width="15" height="18.0" rx="2" transform="rotate(229.0909090909091)"/>
<rect x="-7.5" y="-75" width="15" height="18.0" rx="2" transform="rotate(261.8181818181818)"/>
<rect x="-7.5" y="-75" width="15" height="18.0" rx="2" transform="rotate(294.54545454545456)"/>
<rect x="-7.5" y="-75" width="15" height="18.0" rx="2" transform="rotate(327.27272727272725)"/>
<line x1="21.0" y1="0.0" x2="56.0" y2="0.0"/>
<line x1="10.5" y1="18.2" x2="28.0" y2="48.5"/>
<line x1="-10.5" y1="18.2" x2="-28.0" y2="48.5"/>
<line x1="-21.0" y1="0.0" x2="-56.0" y2="0.0"/>
<line x1="-10.5" y1="-18.2" x2="-28.0" y2="-48.5"/>
<line x1="10.5" y1="-18.2" x2="28.0" y2="-48.5"/>
</g>
<g transform="translate(1385,690)" fill="none" stroke="#dbeafe" stroke-opacity="0.15" stroke-width="3.6" stroke-linejoin="round">
<circle r="118"/>
<circle r="42"/>
<rect x="-11.0" y="-142" width="22" height="27.6" rx="2" transform="rotate(0.0)"/>
<rect x="-11.0" y="-142" width="22" height="27.6" rx="2" transform="rotate(22.5)"/>
<rect x="-11.0" y="-142" width="22" height="27.6" rx="2" transform="rotate(45.0)"/>
<rect x="-11.0" y="-142" width="22" height="27.6" rx="2" transform="rotate(67.5)"/>
<rect x="-11.0" y="-142" width="22" height="27.6" rx="2" transform="rotate(90.0)"/>
<rect x="-11.0" y="-142" width="22" height="27.6" rx="2" transform="rotate(112.5)"/>
<rect x="-11.0" y="-142" width="22" height="27.6" rx="2" transform="rotate(135.0)"/>
<rect x="-11.0" y="-142" width="22" height="27.6" rx="2" transform="rotate(157.5)"/>
<rect x="-11.0" y="-142" width="22" height="27.6" rx="2" transform="rotate(180.0)"/>
<rect x="-11.0" y="-142" width="22" height="27.6" rx="2" transform="rotate(202.5)"/>
<rect x="-11.0" y="-142" width="22" height="27.6" rx="2" transform="rotate(225.0)"/>
<rect x="-11.0" y="-142" width="22" height="27.6" rx="2" transform="rotate(247.5)"/>
<rect x="-11.0" y="-142" width="22" height="27.6" rx="2" transform="rotate(270.0)"/>
<rect x="-11.0" y="-142" width="22" height="27.6" rx="2" transform="rotate(292.5)"/>
<rect x="-11.0" y="-142" width="22" height="27.6" rx="2" transform="rotate(315.0)"/>
<rect x="-11.0" y="-142" width="22" height="27.6" rx="2" transform="rotate(337.5)"/>
<line x1="42.0" y1="0.0" x2="114.0" y2="0.0"/>
<line x1="21.0" y1="36.4" x2="57.0" y2="98.7"/>
<line x1="-21.0" y1="36.4" x2="-57.0" y2="98.7"/>
<line x1="-42.0" y1="0.0" x2="-114.0" y2="0.0"/>
<line x1="-21.0" y1="-36.4" x2="-57.0" y2="-98.7"/>
<line x1="21.0" y1="-36.4" x2="57.0" y2="-98.7"/>
</g>
<g transform="translate(1225,782)" fill="none" stroke="#dbeafe" stroke-opacity="0.11" stroke-width="3.0" stroke-linejoin="round">
<circle r="66"/>
<circle r="24"/>
<rect x="-8.0" y="-83" width="16" height="20.0" rx="2" transform="rotate(0.0)"/>
<rect x="-8.0" y="-83" width="16" height="20.0" rx="2" transform="rotate(30.0)"/>
<rect x="-8.0" y="-83" width="16" height="20.0" rx="2" transform="rotate(60.0)"/>
<rect x="-8.0" y="-83" width="16" height="20.0" rx="2" transform="rotate(90.0)"/>
<rect x="-8.0" y="-83" width="16" height="20.0" rx="2" transform="rotate(120.0)"/>
<rect x="-8.0" y="-83" width="16" height="20.0" rx="2" transform="rotate(150.0)"/>
<rect x="-8.0" y="-83" width="16" height="20.0" rx="2" transform="rotate(180.0)"/>
<rect x="-8.0" y="-83" width="16" height="20.0" rx="2" transform="rotate(210.0)"/>
<rect x="-8.0" y="-83" width="16" height="20.0" rx="2" transform="rotate(240.0)"/>
<rect x="-8.0" y="-83" width="16" height="20.0" rx="2" transform="rotate(270.0)"/>
<rect x="-8.0" y="-83" width="16" height="20.0" rx="2" transform="rotate(300.0)"/>
<rect x="-8.0" y="-83" width="16" height="20.0" rx="2" transform="rotate(330.0)"/>
<line x1="24.0" y1="0.0" x2="62.0" y2="0.0"/>
<line x1="12.0" y1="20.8" x2="31.0" y2="53.7"/>
<line x1="-12.0" y1="20.8" x2="-31.0" y2="53.7"/>
<line x1="-24.0" y1="0.0" x2="-62.0" y2="0.0"/>
<line x1="-12.0" y1="-20.8" x2="-31.0" y2="-53.7"/>
<line x1="12.0" y1="-20.8" x2="31.0" y2="-53.7"/>
</g>
<g fill="none" stroke="#bfdbfe" stroke-opacity="0.16" stroke-width="3.2" stroke-linejoin="round">
  <path d="M980 900 V640 H1120 V712 L1215 640 V900"/>
  <path d="M1008 640 V560 H1032 V640"/>
  <path d="M1062 640 V585 H1086 V640"/>
  <path d="M1010 745 h30 v30 h-30 z M1062 745 h30 v30 h-30 z M1010 812 h30 v30 h-30 z M1062 812 h30 v30 h-30 z"/>
  <path d="M1240 745 h34 v34 h-34 z M1240 812 h34 v34 h-34 z"/>
</g>
<g fill="none" stroke="#a5f3fc" stroke-opacity="0.14" stroke-width="5" stroke-linecap="round">
  <path d="M0 700 H210 a26 26 0 0 1 26 26 V830 a26 26 0 0 0 26 26 H520"/>
  <path d="M0 790 H120 a20 20 0 0 1 20 20 V900"/>
  <circle cx="236" cy="780" r="15" stroke-width="4"/>
  <path d="M221 780 H251 M236 765 V795" stroke-width="3"/>
  <circle cx="410" cy="856" r="13" stroke-width="4"/>
  <path d="M397 856 H423" stroke-width="3"/>
</g>
<g fill="none" stroke="#a5f3fc" stroke-opacity="0.12" stroke-width="5" stroke-linecap="round">
  <path d="M1600 150 H1380 a24 24 0 0 0 -24 24 V300 a24 24 0 0 1 -24 24 H1120"/>
  <circle cx="1356" cy="240" r="14" stroke-width="4"/>
  <path d="M1342 240 H1370 M1356 226 V254" stroke-width="3"/>
</g>
<g fill="none" stroke="#dbeafe" stroke-opacity="0.13" stroke-width="3" stroke-linecap="round">
  <circle cx="760" cy="180" r="62" stroke-width="3.4"/>
  <circle cx="760" cy="180" r="52"/>
  <path d="M718 208 A54 54 0 1 1 802 208" stroke-width="2.4"/>
  <path d="M760 180 L792 146" stroke-width="4"/>
  <circle cx="760" cy="180" r="5" fill="#dbeafe" fill-opacity="0.13" stroke="none"/>
  <path d="M722 146 v-9 M760 128 v-10 M798 146 v-9" stroke-width="2.4"/>
</g>
<rect width="1600" height="900" fill="url(#fade)"/>
</svg>
